<svg xmlns="http://www.w3.org/2000/svg" width="375" viewBox="0 0 375 375" height="375" version="1.0"><defs><clipPath id="a"><path d="M 84.738281 114.789062 L 290.238281 114.789062 L 290.238281 217.539062 L 84.738281 217.539062 Z M 84.738281 114.789062"/></clipPath></defs><path fill="#FFF" d="M-37.5 -37.5H412.5V412.5H-37.5z"/><path fill="#FFF" d="M-37.5 -37.5H412.5V412.5H-37.5z"/><path fill="#FFF" d="M-37.5 -37.5H412.5V412.5H-37.5z"/><g clip-path="url(#a)"><path fill="#100F0D" d="M 290.238281 161.886719 L 290.238281 166.167969 L 285.953125 166.167969 L 285.953125 165.34375 L 285.132812 165.34375 L 285.132812 166.167969 L 285.953125 166.167969 L 285.953125 170.445312 L 281.671875 170.445312 L 281.671875 179.011719 L 277.394531 179.011719 L 277.394531 178.1875 L 276.574219 178.1875 L 276.574219 179.011719 L 277.394531 179.011719 L 277.394531 183.292969 L 273.109375 183.292969 L 273.109375 182.472656 L 268.828125 182.472656 L 268.828125 183.292969 L 264.546875 183.292969 L 264.546875 182.472656 L 260.265625 182.472656 L 260.265625 183.292969 L 255.988281 183.292969 L 255.988281 182.472656 L 251.703125 182.472656 L 251.703125 183.292969 L 247.421875 183.292969 L 247.421875 178.1875 L 243.144531 178.1875 L 243.144531 179.011719 L 238.859375 179.011719 L 238.859375 183.292969 L 234.582031 183.292969 L 234.582031 188.394531 L 238.859375 188.394531 L 238.859375 187.574219 L 243.144531 187.574219 L 243.144531 188.394531 L 247.421875 188.394531 L 247.421875 187.574219 L 251.703125 187.574219 L 251.703125 191.851562 L 250.882812 191.851562 L 250.882812 192.675781 L 251.703125 192.675781 L 251.703125 191.851562 L 255.988281 191.851562 L 255.988281 196.136719 L 251.703125 196.136719 L 251.703125 195.3125 L 250.882812 195.3125 L 250.882812 196.136719 L 251.703125 196.136719 L 251.703125 200.417969 L 238.859375 200.417969 L 238.859375 204.699219 L 208.890625 204.699219 L 208.890625 200.417969 L 204.609375 200.417969 L 204.609375 196.136719 L 174.640625 196.136719 L 174.640625 200.417969 L 148.957031 200.417969 L 148.957031 196.136719 L 153.234375 196.136719 L 153.234375 191.851562 L 127.550781 191.851562 L 127.550781 196.136719 L 123.269531 196.136719 L 123.269531 195.3125 L 122.449219 195.3125 L 122.449219 196.136719 L 123.269531 196.136719 L 123.269531 200.417969 L 118.984375 200.417969 L 118.984375 204.699219 L 106.144531 204.699219 L 106.144531 203.878906 L 105.320312 203.878906 L 105.320312 204.699219 L 106.144531 204.699219 L 106.144531 208.980469 L 101.863281 208.980469 L 101.863281 208.15625 L 101.042969 208.15625 L 101.042969 208.980469 L 101.863281 208.980469 L 101.863281 213.257812 L 93.300781 213.257812 L 93.300781 217.542969 L 84.738281 217.542969 L 84.738281 213.257812 L 89.015625 213.257812 L 89.015625 208.980469 L 93.300781 208.980469 L 93.300781 204.699219 L 97.578125 204.699219 L 97.578125 205.523438 L 98.402344 205.523438 L 98.402344 204.699219 L 97.578125 204.699219 L 97.578125 200.417969 L 101.863281 200.417969 L 101.863281 201.238281 L 102.6875 201.238281 L 102.6875 200.417969 L 101.863281 200.417969 L 101.863281 196.136719 L 106.144531 196.136719 L 106.144531 196.957031 L 106.964844 196.957031 L 106.964844 196.136719 L 106.144531 196.136719 L 106.144531 187.574219 L 101.863281 187.574219 L 101.863281 179.011719 L 102.6875 179.011719 L 102.6875 178.1875 L 101.863281 178.1875 L 101.863281 179.011719 L 97.578125 179.011719 L 97.578125 174.730469 L 98.402344 174.730469 L 98.402344 173.910156 L 97.578125 173.910156 L 97.578125 174.730469 L 93.300781 174.730469 L 93.300781 170.445312 L 94.121094 170.445312 L 94.121094 169.625 L 93.300781 169.625 L 93.300781 170.445312 L 89.015625 170.445312 L 89.015625 166.167969 L 84.738281 166.167969 L 84.738281 161.886719 L 101.863281 161.886719 L 101.863281 166.167969 L 101.042969 166.167969 L 101.042969 166.988281 L 101.863281 166.988281 L 101.863281 166.167969 L 110.421875 166.167969 L 110.421875 170.445312 L 109.601562 170.445312 L 109.601562 171.269531 L 110.421875 171.269531 L 110.421875 170.445312 L 114.707031 170.445312 L 114.707031 174.730469 L 113.882812 174.730469 L 113.882812 175.550781 L 114.707031 175.550781 L 114.707031 174.730469 L 123.269531 174.730469 L 123.269531 175.550781 L 124.089844 175.550781 L 124.089844 174.730469 L 123.269531 174.730469 L 123.269531 170.445312 L 127.550781 170.445312 L 127.550781 161.886719 L 144.671875 161.886719 L 144.671875 162.707031 L 145.492188 162.707031 L 145.492188 161.886719 L 144.671875 161.886719 L 144.671875 157.601562 L 153.234375 157.601562 L 153.234375 158.425781 L 154.058594 158.425781 L 154.058594 157.601562 L 153.234375 157.601562 L 153.234375 153.324219 L 157.519531 153.324219 L 157.519531 154.148438 L 158.339844 154.148438 L 158.339844 153.324219 L 157.519531 153.324219 L 157.519531 149.039062 L 170.363281 149.039062 L 170.363281 149.863281 L 171.183594 149.863281 L 171.183594 149.039062 L 170.363281 149.039062 L 170.363281 144.761719 L 178.925781 144.761719 L 178.925781 145.582031 L 179.75 145.582031 L 179.75 144.761719 L 178.925781 144.761719 L 178.925781 140.480469 L 187.484375 140.480469 L 187.484375 141.304688 L 188.304688 141.304688 L 188.304688 140.480469 L 187.484375 140.480469 L 187.484375 127.632812 L 188.304688 127.632812 L 188.304688 126.8125 L 187.484375 126.8125 L 187.484375 127.632812 L 183.203125 127.632812 L 183.203125 123.355469 L 184.027344 123.355469 L 184.027344 122.53125 L 183.203125 122.53125 L 183.203125 123.355469 L 174.640625 123.355469 L 174.640625 119.074219 L 178.925781 119.074219 L 178.925781 114.789062 L 200.332031 114.789062 L 200.332031 119.074219 L 199.511719 119.074219 L 199.511719 119.898438 L 200.332031 119.898438 L 200.332031 119.074219 L 213.175781 119.074219 L 213.175781 123.355469 L 217.453125 123.355469 L 217.453125 127.632812 L 216.632812 127.632812 L 216.632812 128.457031 L 217.453125 128.457031 L 217.453125 127.632812 L 226.019531 127.632812 L 226.019531 131.917969 L 225.195312 131.917969 L 225.195312 132.738281 L 226.019531 132.738281 L 226.019531 131.917969 L 247.421875 131.917969 L 247.421875 136.199219 L 255.988281 136.199219 L 255.988281 140.480469 L 255.164062 140.480469 L 255.164062 141.304688 L 255.988281 141.304688 L 255.988281 140.480469 L 264.546875 140.480469 L 264.546875 144.761719 L 263.722656 144.761719 L 263.722656 145.582031 L 264.546875 145.582031 L 264.546875 144.761719 L 273.109375 144.761719 L 273.109375 149.039062 L 272.289062 149.039062 L 272.289062 149.863281 L 273.109375 149.863281 L 273.109375 149.039062 L 277.394531 149.039062 L 277.394531 153.324219 L 276.574219 153.324219 L 276.574219 154.148438 L 277.394531 154.148438 L 277.394531 153.324219 L 281.671875 153.324219 L 281.671875 157.601562 L 280.851562 157.601562 L 280.851562 158.425781 L 281.671875 158.425781 L 281.671875 157.601562 L 285.953125 157.601562 L 285.953125 161.886719 L 285.132812 161.886719 L 285.132812 162.707031 L 285.953125 162.707031 L 285.953125 161.886719 L 290.238281 161.886719"/></g><path fill="#FFF" d="M 243.144531 153.324219 L 243.144531 149.039062 L 234.582031 149.039062 L 234.582031 153.324219 Z M 247.421875 187.574219 L 243.144531 187.574219 L 243.144531 191.851562 L 238.859375 191.851562 L 238.859375 187.574219 L 234.582031 187.574219 L 234.582031 191.851562 L 230.296875 191.851562 L 230.296875 187.574219 L 217.453125 187.574219 L 217.453125 191.851562 L 221.738281 191.851562 L 221.738281 196.136719 L 251.703125 196.136719 L 251.703125 191.851562 L 247.421875 191.851562 Z M 277.394531 174.730469 L 277.394531 179.011719 L 273.109375 179.011719 L 273.109375 183.292969 L 268.828125 183.292969 L 268.828125 179.011719 L 264.546875 179.011719 L 264.546875 183.292969 L 260.265625 183.292969 L 260.265625 179.011719 L 255.988281 179.011719 L 255.988281 183.292969 L 251.703125 183.292969 L 251.703125 174.730469 L 247.421875 174.730469 L 247.421875 179.011719 L 243.144531 179.011719 L 243.144531 170.445312 L 238.859375 170.445312 L 238.859375 174.730469 L 234.582031 174.730469 L 234.582031 166.167969 L 247.421875 166.167969 L 247.421875 170.445312 L 255.988281 170.445312 L 255.988281 174.730469 L 277.394531 174.730469"/><path fill="#C5C0BD" d="M 97.578125 204.699219 L 101.863281 204.699219 L 101.863281 208.980469 L 97.578125 208.980469 Z M 101.863281 200.417969 L 106.144531 200.417969 L 106.144531 204.699219 L 101.863281 204.699219 Z M 238.859375 157.601562 L 234.582031 157.601562 L 234.582031 153.324219 L 230.296875 153.324219 L 230.296875 144.761719 L 226.019531 144.761719 L 226.019531 140.480469 L 230.296875 140.480469 L 230.296875 144.761719 L 243.144531 144.761719 L 243.144531 149.039062 L 247.421875 149.039062 L 247.421875 153.324219 L 243.144531 153.324219 L 243.144531 157.601562 Z M 281.671875 161.886719 L 281.671875 157.601562 L 277.394531 157.601562 L 277.394531 153.324219 L 273.109375 153.324219 L 273.109375 149.039062 L 264.546875 149.039062 L 264.546875 144.761719 L 255.988281 144.761719 L 255.988281 140.480469 L 243.144531 140.480469 L 243.144531 136.199219 L 226.019531 136.199219 L 226.019531 131.917969 L 217.453125 131.917969 L 217.453125 127.632812 L 208.890625 127.632812 L 208.890625 123.355469 L 200.332031 123.355469 L 200.332031 119.074219 L 183.203125 119.074219 L 183.203125 123.355469 L 187.484375 123.355469 L 187.484375 127.632812 L 191.769531 127.632812 L 191.769531 136.199219 L 200.332031 136.199219 L 200.332031 131.917969 L 204.609375 131.917969 L 204.609375 136.199219 L 200.332031 136.199219 L 200.332031 140.480469 L 187.484375 140.480469 L 187.484375 144.761719 L 178.925781 144.761719 L 178.925781 149.039062 L 170.363281 149.039062 L 170.363281 153.324219 L 157.519531 153.324219 L 157.519531 157.601562 L 153.234375 157.601562 L 153.234375 161.886719 L 144.671875 161.886719 L 144.671875 166.167969 L 131.828125 166.167969 L 131.828125 174.730469 L 123.269531 174.730469 L 123.269531 179.011719 L 114.707031 179.011719 L 114.707031 174.730469 L 110.421875 174.730469 L 110.421875 170.445312 L 101.863281 170.445312 L 101.863281 166.167969 L 93.300781 166.167969 L 93.300781 170.445312 L 97.578125 170.445312 L 97.578125 174.730469 L 101.863281 174.730469 L 101.863281 179.011719 L 106.144531 179.011719 L 106.144531 183.292969 L 110.421875 183.292969 L 110.421875 196.136719 L 106.144531 196.136719 L 106.144531 200.417969 L 114.707031 200.417969 L 114.707031 196.136719 L 123.269531 196.136719 L 123.269531 187.574219 L 131.828125 187.574219 L 131.828125 183.292969 L 144.671875 183.292969 L 144.671875 187.574219 L 153.234375 187.574219 L 153.234375 179.011719 L 157.519531 179.011719 L 157.519531 174.730469 L 161.800781 174.730469 L 161.800781 170.445312 L 166.078125 170.445312 L 166.078125 179.011719 L 161.800781 179.011719 L 161.800781 183.292969 L 157.519531 183.292969 L 157.519531 196.136719 L 166.078125 196.136719 L 166.078125 191.851562 L 170.363281 191.851562 L 170.363281 187.574219 L 174.640625 187.574219 L 174.640625 179.011719 L 178.925781 179.011719 L 178.925781 174.730469 L 183.203125 174.730469 L 183.203125 157.601562 L 187.484375 157.601562 L 187.484375 153.324219 L 191.769531 153.324219 L 191.769531 157.601562 L 187.484375 157.601562 L 187.484375 174.730469 L 191.769531 174.730469 L 191.769531 161.886719 L 196.046875 161.886719 L 196.046875 157.601562 L 200.332031 157.601562 L 200.332031 161.886719 L 196.046875 161.886719 L 196.046875 179.011719 L 200.332031 179.011719 L 200.332031 166.167969 L 204.609375 166.167969 L 204.609375 161.886719 L 208.890625 161.886719 L 208.890625 166.167969 L 204.609375 166.167969 L 204.609375 174.730469 L 208.890625 174.730469 L 208.890625 170.445312 L 213.175781 170.445312 L 213.175781 174.730469 L 217.453125 174.730469 L 217.453125 179.011719 L 221.738281 179.011719 L 221.738281 170.445312 L 226.019531 170.445312 L 226.019531 166.167969 L 230.296875 166.167969 L 230.296875 161.886719 L 247.421875 161.886719 L 247.421875 166.167969 L 255.988281 166.167969 L 255.988281 170.445312 L 277.394531 170.445312 L 277.394531 166.167969 L 285.953125 166.167969 L 285.953125 161.886719 L 281.671875 161.886719"/><g fill="#100F0D"><g><g><path d="M 7.273438 -4.40625 L 7.273438 -22.039062 L 2.519531 -22.039062 L 2.519531 0 L 15.742188 0 L 15.742188 -4.40625 Z M 7.273438 -4.40625" transform="translate(86.5 258.407)"/></g></g></g><g fill="#100F0D"><g><g><path d="M 12.972656 0.503906 C 19.679688 0.503906 24.683594 -4.4375 24.683594 -11.019531 C 24.683594 -17.570312 19.679688 -22.511719 12.972656 -22.511719 C 6.234375 -22.511719 1.195312 -17.539062 1.195312 -11.019531 C 1.195312 -4.472656 6.234375 0.503906 12.972656 0.503906 Z M 12.972656 -4 C 9.035156 -4 6.046875 -7.050781 6.046875 -11.019531 C 6.046875 -14.988281 9.035156 -18.007812 12.972656 -18.007812 C 16.90625 -18.007812 19.835938 -15.019531 19.835938 -11.019531 C 19.835938 -7.019531 16.90625 -4 12.972656 -4 Z M 12.972656 -4" transform="translate(102.868 258.407)"/></g></g></g><g fill="#100F0D"><g><g><path d="M 17.128906 0 L 22.324219 0 L 13.414062 -22.039062 L 8.910156 -22.039062 L 0.25 0 L 5.320312 0 L 6.832031 -4.15625 L 15.585938 -4.15625 Z M 11.207031 -16.214844 L 14.105469 -8.3125 L 8.3125 -8.3125 Z M 11.207031 -16.214844" transform="translate(128.71 258.407)"/></g></g></g><g fill="#100F0D"><g><g><path d="M 16.464844 -22.039062 L 16.464844 -8.59375 L 6.800781 -22.039062 L 2.519531 -22.039062 L 2.519531 0 L 7.179688 0 L 7.179688 -13.757812 L 17.160156 0 L 21.15625 0 L 21.15625 -22.039062 Z M 16.464844 -22.039062" transform="translate(151.247 258.407)"/></g></g></g><g fill="#100F0D"><g><g><path d="M 9.824219 0.441406 C 14.386719 0.441406 18.167969 -1.859375 18.167969 -6.613281 C 18.167969 -11.554688 13.949219 -12.59375 10.609375 -13.445312 C 8.25 -14.011719 6.359375 -14.484375 6.359375 -16.027344 C 6.359375 -17.472656 7.902344 -18.136719 9.445312 -18.136719 C 11.238281 -18.136719 12.8125 -17.253906 12.8125 -15.332031 L 17.503906 -15.332031 C 17.503906 -19.742188 14.640625 -22.449219 9.570312 -22.449219 C 4.691406 -22.449219 1.574219 -20.054688 1.574219 -15.835938 C 1.574219 -11.082031 5.605469 -10.105469 8.941406 -9.289062 C 11.335938 -8.753906 13.351562 -8.28125 13.351562 -6.550781 C 13.351562 -4.910156 11.585938 -3.96875 9.792969 -3.96875 C 7.839844 -3.96875 6.078125 -5.007812 6.078125 -7.117188 L 1.257812 -7.117188 C 1.257812 -2.394531 4.753906 0.441406 9.824219 0.441406 Z M 9.824219 0.441406" transform="translate(182.314 258.407)"/></g></g></g><g fill="#100F0D"><g><g><path d="M 15.585938 -22.039062 L 15.585938 -13.539062 L 7.273438 -13.539062 L 7.273438 -22.039062 L 2.519531 -22.039062 L 2.519531 0 L 7.273438 0 L 7.273438 -9.097656 L 15.585938 -9.097656 L 15.585938 0 L 20.339844 0 L 20.339844 -22.039062 Z M 15.585938 -22.039062" transform="translate(201.736 258.407)"/></g></g></g><g fill="#100F0D"><g><g><path d="M 17.128906 0 L 22.324219 0 L 13.414062 -22.039062 L 8.910156 -22.039062 L 0.25 0 L 5.320312 0 L 6.832031 -4.15625 L 15.585938 -4.15625 Z M 11.207031 -16.214844 L 14.105469 -8.3125 L 8.3125 -8.3125 Z M 11.207031 -16.214844" transform="translate(224.556 258.407)"/></g></g></g><g fill="#100F0D"><g><g><path d="M 14.640625 0 L 19.960938 0 L 15.082031 -8.3125 C 17.539062 -9.507812 19.113281 -11.839844 19.113281 -14.734375 C 19.113281 -18.984375 15.804688 -22.039062 11.398438 -22.039062 L 2.519531 -22.039062 L 2.519531 0 L 7.273438 0 L 7.273438 -7.492188 L 10.328125 -7.492188 Z M 7.273438 -17.632812 L 11.082031 -17.632812 C 13.097656 -17.632812 14.261719 -16.402344 14.261719 -14.765625 C 14.261719 -13.097656 13.097656 -11.902344 11.082031 -11.902344 L 7.273438 -11.902344 Z M 7.273438 -17.632812" transform="translate(247.093 258.407)"/></g></g></g><g fill="#100F0D"><g><g><path d="M 20.875 0 L 12.5625 -11.460938 L 20.054688 -22.039062 L 14.515625 -22.039062 L 7.273438 -11.839844 L 7.273438 -22.039062 L 2.519531 -22.039062 L 2.519531 0 L 7.273438 0 L 7.273438 -10.738281 L 15.050781 0 Z M 20.875 0" transform="translate(267.836 258.407)"/></g></g></g><g fill="#100F0D"><g><g><path d="M 10.941406 0 L 9.679688 -8.175781 L 7.90625 -8.175781 L 5.6875 -3.152344 L 3.46875 -8.175781 L 1.703125 -8.175781 L 0.421875 0 L 2.21875 0 L 3.023438 -5.324219 L 5.464844 -0.0117188 L 5.898438 -0.0117188 L 8.335938 -5.324219 L 9.144531 0 Z M 10.941406 0" transform="translate(93.117 278.124)"/></g></g></g><g fill="#100F0D"><g><g><path d="M 4.8125 0.1875 C 7.296875 0.1875 9.15625 -1.648438 9.15625 -4.085938 C 9.15625 -6.515625 7.296875 -8.347656 4.8125 -8.347656 C 2.3125 -8.347656 0.445312 -6.503906 0.445312 -4.085938 C 0.445312 -1.660156 2.3125 0.1875 4.8125 0.1875 Z M 4.8125 -1.484375 C 3.351562 -1.484375 2.242188 -2.617188 2.242188 -4.085938 C 2.242188 -5.558594 3.351562 -6.679688 4.8125 -6.679688 C 6.269531 -6.679688 7.355469 -5.570312 7.355469 -4.085938 C 7.355469 -2.605469 6.269531 -1.484375 4.8125 -1.484375 Z M 4.8125 -1.484375" transform="translate(106.576 278.124)"/></g></g></g><g fill="#100F0D"><g><g><path d="M 5.429688 0 L 7.402344 0 L 5.59375 -3.082031 C 6.503906 -3.527344 7.089844 -4.390625 7.089844 -5.464844 C 7.089844 -7.042969 5.863281 -8.175781 4.226562 -8.175781 L 0.933594 -8.175781 L 0.933594 0 L 2.699219 0 L 2.699219 -2.777344 L 3.832031 -2.777344 Z M 2.699219 -6.539062 L 4.109375 -6.539062 C 4.859375 -6.539062 5.289062 -6.082031 5.289062 -5.476562 C 5.289062 -4.859375 4.859375 -4.414062 4.109375 -4.414062 L 2.699219 -4.414062 Z M 2.699219 -6.539062" transform="translate(118.26 278.124)"/></g></g></g><g fill="#100F0D"><g><g><path d="M 6.5625 -8.175781 L 0.246094 -8.175781 L 0.246094 -6.527344 L 2.523438 -6.527344 L 2.523438 0 L 4.285156 0 L 4.285156 -6.527344 L 6.5625 -6.527344 Z M 6.5625 -8.175781" transform="translate(128.055 278.124)"/></g></g></g><g fill="#100F0D"><g><g><path d="M 4.519531 -4.261719 L 4.519531 -2.90625 L 6.972656 -2.90625 C 6.667969 -2.066406 5.746094 -1.507812 4.695312 -1.507812 C 3.222656 -1.507812 2.253906 -2.558594 2.253906 -4.074219 C 2.253906 -5.605469 3.246094 -6.65625 4.695312 -6.65625 C 5.722656 -6.65625 6.585938 -6.105469 6.9375 -5.230469 L 8.757812 -5.230469 C 8.371094 -7.066406 6.691406 -8.347656 4.660156 -8.347656 C 2.242188 -8.347656 0.457031 -6.515625 0.457031 -4.074219 C 0.457031 -1.625 2.289062 0.1875 4.695312 0.1875 C 7.148438 0.1875 8.863281 -1.703125 8.863281 -4.261719 Z M 4.519531 -4.261719" transform="translate(136.95 278.124)"/></g></g></g><g fill="#100F0D"><g><g><path d="M 6.351562 0 L 8.28125 0 L 4.976562 -8.175781 L 3.304688 -8.175781 L 0.09375 0 L 1.972656 0 L 2.535156 -1.542969 L 5.78125 -1.542969 Z M 4.15625 -6.015625 L 5.230469 -3.082031 L 3.082031 -3.082031 Z M 4.15625 -6.015625" transform="translate(148.331 278.124)"/></g></g></g><g fill="#100F0D"><g><g><path d="M 4.519531 -4.261719 L 4.519531 -2.90625 L 6.972656 -2.90625 C 6.667969 -2.066406 5.746094 -1.507812 4.695312 -1.507812 C 3.222656 -1.507812 2.253906 -2.558594 2.253906 -4.074219 C 2.253906 -5.605469 3.246094 -6.65625 4.695312 -6.65625 C 5.722656 -6.65625 6.585938 -6.105469 6.9375 -5.230469 L 8.757812 -5.230469 C 8.371094 -7.066406 6.691406 -8.347656 4.660156 -8.347656 C 2.242188 -8.347656 0.457031 -6.515625 0.457031 -4.074219 C 0.457031 -1.625 2.289062 0.1875 4.695312 0.1875 C 7.148438 0.1875 8.863281 -1.703125 8.863281 -4.261719 Z M 4.519531 -4.261719" transform="translate(158.79 278.124)"/></g></g></g><g fill="#100F0D"><g><g><path d="M 2.699219 -1.636719 L 2.699219 -3.316406 L 5.535156 -3.316406 L 5.535156 -4.917969 L 2.699219 -4.917969 L 2.699219 -6.539062 L 5.839844 -6.539062 L 5.839844 -8.175781 L 0.933594 -8.175781 L 0.933594 0 L 5.96875 0 L 5.96875 -1.636719 Z M 2.699219 -1.636719" transform="translate(170.172 278.124)"/></g></g></g><g fill="#100F0D"><g><g><path d="M 4.683594 0.1875 C 6.703125 0.1875 8.292969 -1.167969 8.664062 -3.1875 L 6.878906 -3.1875 C 6.585938 -2.160156 5.757812 -1.507812 4.683594 -1.507812 C 3.292969 -1.507812 2.253906 -2.605469 2.253906 -4.074219 C 2.253906 -5.546875 3.292969 -6.65625 4.683594 -6.65625 C 5.710938 -6.65625 6.527344 -6.050781 6.867188 -5.089844 L 8.628906 -5.089844 C 8.257812 -7.03125 6.667969 -8.347656 4.683594 -8.347656 C 2.277344 -8.347656 0.457031 -6.503906 0.457031 -4.074219 C 0.457031 -1.660156 2.277344 0.1875 4.683594 0.1875 Z M 4.683594 0.1875" transform="translate(183.644 278.124)"/></g></g></g><g fill="#100F0D"><g><g><path d="M 6.351562 0 L 8.28125 0 L 4.976562 -8.175781 L 3.304688 -8.175781 L 0.09375 0 L 1.972656 0 L 2.535156 -1.542969 L 5.78125 -1.542969 Z M 4.15625 -6.015625 L 5.230469 -3.082031 L 3.082031 -3.082031 Z M 4.15625 -6.015625" transform="translate(194.721 278.124)"/></g></g></g><g fill="#100F0D"><g><g><path d="M 2.699219 -1.636719 L 2.699219 -8.175781 L 0.933594 -8.175781 L 0.933594 0 L 5.839844 0 L 5.839844 -1.636719 Z M 2.699219 -1.636719" transform="translate(205.18 278.124)"/></g></g></g><g fill="#100F0D"><g><g><path d="M 4.683594 0.1875 C 6.703125 0.1875 8.292969 -1.167969 8.664062 -3.1875 L 6.878906 -3.1875 C 6.585938 -2.160156 5.757812 -1.507812 4.683594 -1.507812 C 3.292969 -1.507812 2.253906 -2.605469 2.253906 -4.074219 C 2.253906 -5.546875 3.292969 -6.65625 4.683594 -6.65625 C 5.710938 -6.65625 6.527344 -6.050781 6.867188 -5.089844 L 8.628906 -5.089844 C 8.257812 -7.03125 6.667969 -8.347656 4.683594 -8.347656 C 2.277344 -8.347656 0.457031 -6.503906 0.457031 -4.074219 C 0.457031 -1.660156 2.277344 0.1875 4.683594 0.1875 Z M 4.683594 0.1875" transform="translate(213.352 278.124)"/></g></g></g><g fill="#100F0D"><g><g><path d="M 4.226562 0.1875 C 6.152344 0.1875 7.601562 -1.15625 7.601562 -3.070312 L 7.601562 -8.175781 L 5.828125 -8.175781 L 5.828125 -3.152344 C 5.828125 -2.136719 5.160156 -1.484375 4.226562 -1.484375 C 3.28125 -1.484375 2.617188 -2.136719 2.617188 -3.152344 L 2.617188 -8.175781 L 0.839844 -8.175781 L 0.839844 -3.070312 C 0.839844 -1.15625 2.289062 0.1875 4.226562 0.1875 Z M 4.226562 0.1875" transform="translate(224.43 278.124)"/></g></g></g><g fill="#100F0D"><g><g><path d="M 2.699219 -1.636719 L 2.699219 -8.175781 L 0.933594 -8.175781 L 0.933594 0 L 5.839844 0 L 5.839844 -1.636719 Z M 2.699219 -1.636719" transform="translate(234.96 278.124)"/></g></g></g><g fill="#100F0D"><g><g><path d="M 6.351562 0 L 8.28125 0 L 4.976562 -8.175781 L 3.304688 -8.175781 L 0.09375 0 L 1.972656 0 L 2.535156 -1.542969 L 5.78125 -1.542969 Z M 4.15625 -6.015625 L 5.230469 -3.082031 L 3.082031 -3.082031 Z M 4.15625 -6.015625" transform="translate(243.13 278.124)"/></g></g></g><g fill="#100F0D"><g><g><path d="M 6.5625 -8.175781 L 0.246094 -8.175781 L 0.246094 -6.527344 L 2.523438 -6.527344 L 2.523438 0 L 4.285156 0 L 4.285156 -6.527344 L 6.5625 -6.527344 Z M 6.5625 -8.175781" transform="translate(253.59 278.124)"/></g></g></g><g fill="#100F0D"><g><g><path d="M 4.8125 0.1875 C 7.296875 0.1875 9.15625 -1.648438 9.15625 -4.085938 C 9.15625 -6.515625 7.296875 -8.347656 4.8125 -8.347656 C 2.3125 -8.347656 0.445312 -6.503906 0.445312 -4.085938 C 0.445312 -1.660156 2.3125 0.1875 4.8125 0.1875 Z M 4.8125 -1.484375 C 3.351562 -1.484375 2.242188 -2.617188 2.242188 -4.085938 C 2.242188 -5.558594 3.351562 -6.679688 4.8125 -6.679688 C 6.269531 -6.679688 7.355469 -5.570312 7.355469 -4.085938 C 7.355469 -2.605469 6.269531 -1.484375 4.8125 -1.484375 Z M 4.8125 -1.484375" transform="translate(262.485 278.124)"/></g></g></g><g fill="#100F0D"><g><g><path d="M 5.429688 0 L 7.402344 0 L 5.59375 -3.082031 C 6.503906 -3.527344 7.089844 -4.390625 7.089844 -5.464844 C 7.089844 -7.042969 5.863281 -8.175781 4.226562 -8.175781 L 0.933594 -8.175781 L 0.933594 0 L 2.699219 0 L 2.699219 -2.777344 L 3.832031 -2.777344 Z M 2.699219 -6.539062 L 4.109375 -6.539062 C 4.859375 -6.539062 5.289062 -6.082031 5.289062 -5.476562 C 5.289062 -4.859375 4.859375 -4.414062 4.109375 -4.414062 L 2.699219 -4.414062 Z M 2.699219 -6.539062" transform="translate(274.17 278.124)"/></g></g></g></svg>